<svg id="Layer_1" data-name="Layer 1" xmlns="http://www.w3.org/2000/svg" viewBox="0 0 4681.53 2000"><path d="M1046.34,1454.3c12.2-13.9,24.4-27.7,36.5-41.7q90-103.95,180.2-207.8c7.9-9.1,11.6-18.2,11.5-30.3-.4-51.7-1.1-103.4.6-155,1.9-60,.6-120.1,1.7-180.1.2-8.6-2.5-15-8.2-21.4-47.6-53.1-94.7-106.6-142.2-159.8-5.7-6.4-6.9-11.1-.9-18.5q54.9-67.2,108.7-135.3c5.1-6.5,8.5-5.8,13.6-.1q73.2,81.6,146.7,163.1c28,31.1,55.8,62.3,83.9,93.3,4.2,4.6,6.4,9.4,6.2,15.6-2.2,71.6-1,143.4-2.9,215-1.3,51.3-.5,102.6-1.7,153.9-.8,33.4-1.3,66.9-1.7,100.4a21.18,21.18,0,0,1-6,14.6q-86,93.75-171.7,187.5-143.55,157.2-286.9,314.4-81.6,89.55-163.5,178.8c-2.7,2.9-5,8.9-9.8,6.9-4-1.7-2.3-7.2-2.3-11q-.45-358-.8-716.2c0-7.7,1.8-13.8,7.2-19.6q60.15-64.8,119.8-130,96.45-104.85,192.9-209.6a68.82,68.82,0,0,1,5.3-5.5c3.3-2.9,5.2-1.9,5.5,2.4.2,2.5.1,5.1.1,7.6q0,126.6.1,253.3c0,8.5-2.2,15.2-7.9,21.7-38.3,43.4-76.2,87.1-114.3,130.6-4,4.5-7.1,8.9-6.6,15.4,3.3,42.9,1.5,85.8,2,128.7A157.27,157.27,0,0,0,1046.34,1454.3Z" style="fill:#31456a"/><path d="M500.94,1453c3.9-32.2,1.7-64.6,2.5-96.9.6-23.3-1-46.6,1.7-69.8.7-6.1-2.2-10.2-6-14.5-38.6-44-77-88.3-115.7-132.2a26.44,26.44,0,0,1-7-18.7c.2-85.5.1-171.1.2-256.6,0-3.4-1.9-8.4,2.1-9.7,3.8-1.3,5.8,3.6,8.2,6.1q87.9,95.1,175.4,190.3c46.3,50.3,92.5,100.8,138.9,151,4.5,4.9,6.3,10.1,6.3,16.7q-.45,359.7-.8,719.5c0,3.5,1.4,8.4-2.5,9.9s-6.1-3.2-8.4-5.7q-97.2-106.35-194.2-212.8-72.9-79.8-145.8-159.5-111.9-122.55-223.7-245c-19.4-21.2-38.8-42.5-58.4-63.4a25.09,25.09,0,0,1-7.3-18.5c-.6-77.5-.4-155-2.6-232.5-1.6-58.6-.6-117.1-2.1-175.7-.5-18.5-.8-37.1-1.6-55.6-.3-7.7,1.7-13.8,7.1-19.7q98.55-108.9,196.6-218.1c11.2-12.4,22.5-24.8,33.4-37.5,5.3-6.1,8.7-5.4,13.6.6q53.7,67.5,108.1,134.4c6.2,7.6,5.5,12.5-.6,19.4-47.8,53.4-95.2,107.2-142.9,160.6-4.9,5.5-7.3,11-7.3,18.5.4,52.8-.8,105.6.8,158.3,1.9,60.8,1.1,121.5,1.6,182.3a34.41,34.41,0,0,0,8.8,23.6q106.65,122.7,213,245.8c2.1,2.4,3.6,5.4,5.3,8.1C498.64,1454.8,499.84,1453.9,500.94,1453Z" style="fill:#31456a"/><path d="M713.64,101.1c-3.3,118.6-.6,237.3-2.8,355.9-1.9,105.2.1,210.3-2.2,315.5-1.8,83.7-.7,167.4-1.7,251.1-.1,4.9,2.1,11.9-3,14-4.4,1.8-7.5-4.7-10.6-8q-89.7-93.9-179.3-188c-9.9-10.4-7.5-23.2-7.8-35-.9-42.9-.5-85.9-1-128.8-.4-37.1-1.3-74.2-1.7-111.3-.1-6.7-2.8-11.8-6.7-16.8-34.3-44.4-68.3-88.9-102.8-133-5.1-6.5-5-10.3.6-16.5Q549,228.9,702.74,57.6c2.3-2.6,4.3-7.2,8.3-5.7s2.4,6.4,2.4,9.8C713.74,74.9,713.64,88,713.64,101.1Z" style="fill:#31456a"/><path d="M837.74,910.3c-2-143.7-1.4-287.5-3-431.2-1.2-104.4-.4-208.9-2-313.3-.6-34.5-.8-69.1-1.5-103.6-.1-3.5-1.6-8.4,2.1-10,4.6-2.1,6.6,3.3,9.1,6q105.15,116.7,210.2,233.7,49.2,54.75,98.6,109.5c4.7,5.1,4.5,8.6.3,13.9-34.4,44.2-68.5,88.7-102.8,133-4.9,6.3-7.6,12.6-7.6,20.8-.6,79.3-1.6,158.6-2.3,237.9-.2,17.6-4.7,31.7-18.1,45.3-56.4,57.3-111.2,116.2-166.8,174.3-4,4.2-7.5,12.7-13.6,10.2-5-2-2.5-10.6-2.5-16.2C837.64,983.9,837.74,947.1,837.74,910.3Z" style="fill:#31456a"/><path d="M1727.64,1644.88c-37.49,0-68.64-2.05-98.76-12.1l-23.26-7.75V1431.94l44,13.54a200.68,200.68,0,0,0,60.75,8.85c63.16,0,102.3-19.71,102.3-117.83V362h202.63v971c0,50.2-5.64,94.75-16.76,132.39-11.73,39.7-30,73.33-54.23,100-24.59,27-55.82,47.37-92.84,60.55C1816.22,1638.52,1774.55,1644.88,1727.64,1644.88Z" style="fill:#31456a"/><path d="M1639.63,1600.52V1478a233.9,233.9,0,0,0,70.76,10.35c93.18,0,136.32-46.59,136.32-151.85V396h134.6v937c0,188.09-81.11,277.82-253.67,277.82C1693.13,1610.87,1665.52,1609.14,1639.63,1600.52Z" style="fill:#31456a"/><path d="M2395.43,1655.24c-46.79,0-89.59-7.44-127.22-22.12-37.91-14.78-70.58-36.87-97.1-65.63-26.12-28.34-46.09-63-59.36-103-13-39-19.53-83.28-19.53-131.45V667c0-201.75,113.35-322.19,303.21-322.19,47.2,0,90.2,7.34,127.81,21.82,38.05,14.65,70.74,36.61,97.16,65.29,26,28.23,45.87,62.9,59,103,12.77,39,19.24,83.44,19.24,132.05V825.22H2502.92V658.33c0-41.32-9.85-74-28.47-94.45-17.24-19-42.67-28.56-75.57-28.56s-58.32,9.61-75.57,28.56c-18.62,20.47-28.46,53.13-28.46,94.45v683.34c0,41.33,9.84,74,28.46,94.45,17.25,19,42.67,28.57,75.57,28.57s58.33-9.61,75.57-28.57c18.62-20.46,28.47-53.12,28.47-94.45V1138.55h195.72v194.5C2698.64,1534.79,2585.29,1655.24,2395.43,1655.24Z" style="fill:#31456a"/><path d="M2126.24,1333.05V667c0-181.19,96.63-288.18,269.19-288.18,174.29,0,269.2,107,269.2,288.18V791.2h-127.7V658.33c0-103.54-53.49-157-138-157s-138.05,53.49-138.05,157v683.34c0,103.54,53.5,157,138.05,157s138-53.49,138-157V1172.56h127.7v160.49c0,179.46-94.91,288.17-269.2,288.17C2222.87,1621.22,2126.24,1512.51,2126.24,1333.05Z" style="fill:#31456a"/><path d="M3061.49,1655.24c-48.17,0-91.84-7.39-129.78-22-38.69-14.87-71.79-37.29-98.39-66.64-52.08-57.46-78.49-139.53-78.49-243.94V675.59c0-104.33,26.44-186.15,78.58-243.18,26.6-29.1,59.72-51.3,98.43-66,37.86-14.37,81.49-21.65,129.65-21.65,48.56,0,92.5,7.27,130.58,21.62,38.95,14.68,72.24,36.87,99,66,52.32,57,78.85,138.8,78.85,243.24V808H3174.16V667c0-116.68-58.37-131.64-109.21-131.64-36,0-61.81,9.39-79,28.7-18.92,21.28-28.51,55.92-28.51,102.94v666.09c0,47.62,9.56,82.44,28.42,103.48,17,19,42.84,28.16,79.07,28.16,54,0,109.21-15.64,109.21-131.64V1096.14H3041.28V905.59h328.6v417.1c0,104.52-26.49,186.61-78.75,244-26.73,29.35-60,51.76-98.93,66.6C3154,1647.85,3110.06,1655.24,3061.49,1655.24Z" style="fill:#31456a"/><path d="M2788.85,1322.69V675.59c0-191.55,94.91-296.81,272.65-296.81,179.46,0,274.37,105.26,274.37,296.81V774h-127.7V667c0-113.89-51.77-165.66-143.22-165.66-89.74,0-141.5,51.77-141.5,165.66v666.09c0,115.61,51.76,165.65,141.5,165.65,91.45,0,143.22-50,143.22-165.65V1062.12H3075.3V939.61h260.57v383.08c0,191.55-94.91,298.53-274.37,298.53C2883.76,1621.22,2788.85,1514.24,2788.85,1322.69Z" style="fill:#31456a"/><path d="M3446.79,1638V362h298c50.19,0,94.83,6.87,132.68,20.41,39.28,14.05,72.46,35.64,98.61,64.18,25.71,28.06,45.07,63.35,57.54,104.9,11.83,39.41,17.83,85.8,17.83,137.88V792.93c0,52.08-6,98.39-17.84,137.65-12.48,41.4-31.87,76.51-57.63,104.38-26.15,28.28-59.33,49.65-98.64,63.53-37.76,13.32-82.36,20.08-132.55,20.08h-95.41V1638Zm298-710c69,0,104-19.82,104-128.19V680.76c0-108.36-35-128.19-104-128.19h-95.41V928Z" style="fill:#31456a"/><path d="M3480.8,396h264c186.37,0,272.65,98.36,272.65,293.35V792.93c0,195-86.28,291.63-272.65,291.63H3615.4V1604H3480.8Zm264,566c94.91,0,138-43.14,138-162.21V680.76c0-119.06-43.14-162.2-138-162.2H3615.4V962Z" style="fill:#31456a"/><polygon points="4107.69 1637.98 4107.69 362.02 4310.32 362.02 4310.32 1447.43 4655.44 1447.43 4655.44 1637.98 4107.69 1637.98" style="fill:#31456a"/><path d="M4141.7,396h134.6V1481.45h345.12V1604H4141.7Z" style="fill:#31456a"/></svg>