<?xml version="1.0" encoding="utf-8"?>
<!-- Generator: Adobe Illustrator 24.3.0, SVG Export Plug-In . SVG Version: 6.00 Build 0)  -->
<svg version="1.1" id="Layer_1" xmlns="http://www.w3.org/2000/svg" xmlns:xlink="http://www.w3.org/1999/xlink" x="0px" y="0px"
	 viewBox="0 0 1538 2000" style="enable-background:new 0 0 1538 2000;" xml:space="preserve">
<style type="text/css">
	.st0{fill:#31456A;}
</style>
<g>
	<path class="st0" d="M1043,1454.3c12.2-13.9,24.4-27.7,36.5-41.7c60-69.3,119.9-138.7,180.2-207.8c7.9-9.1,11.6-18.2,11.5-30.3
		c-0.4-51.7-1.1-103.4,0.6-155c1.9-60,0.6-120.1,1.7-180.1c0.2-8.6-2.5-15-8.2-21.4c-47.6-53.1-94.7-106.6-142.2-159.8
		c-5.7-6.4-6.9-11.1-0.9-18.5c36.6-44.8,72.7-90,108.7-135.3c5.1-6.5,8.5-5.8,13.6-0.1c48.8,54.4,97.8,108.7,146.7,163.1
		c28,31.1,55.8,62.3,83.9,93.3c4.2,4.6,6.4,9.4,6.2,15.6c-2.2,71.6-1,143.4-2.9,215c-1.3,51.3-0.5,102.6-1.7,153.9
		c-0.8,33.4-1.3,66.9-1.7,100.4c-0.1,5.9-2.2,10.4-6,14.6c-57.3,62.5-114.6,124.9-171.7,187.5c-95.7,104.8-191.2,209.6-286.9,314.4
		c-54.4,59.7-108.9,119.3-163.5,178.8c-2.7,2.9-5,8.9-9.8,6.9c-4-1.7-2.3-7.2-2.3-11c-0.3-238.7-0.5-477.5-0.8-716.2
		c0-7.7,1.8-13.8,7.2-19.6c40.1-43.2,79.9-86.6,119.8-130c64.3-69.9,128.6-139.7,192.9-209.6c1.7-1.9,3.4-3.8,5.3-5.5
		c3.3-2.9,5.2-1.9,5.5,2.4c0.2,2.5,0.1,5.1,0.1,7.6c0,84.4-0.1,168.9,0.1,253.3c0,8.5-2.2,15.2-7.9,21.7
		c-38.3,43.4-76.2,87.1-114.3,130.6c-4,4.5-7.1,8.9-6.6,15.4c3.3,42.9,1.5,85.8,2,128.7C1038.3,1428.1,1039.4,1440.7,1043,1454.3z"
		/>
	<path class="st0" d="M497.6,1453c3.9-32.2,1.7-64.6,2.5-96.9c0.6-23.3-1-46.6,1.7-69.8c0.7-6.1-2.2-10.2-6-14.5
		c-38.6-44-77-88.3-115.7-132.2c-4.9-5.6-7-11.3-7-18.7c0.2-85.5,0.1-171.1,0.2-256.6c0-3.4-1.9-8.4,2.1-9.7
		c3.8-1.3,5.8,3.6,8.2,6.1C442.2,924.1,500.6,987.5,559,1051c46.3,50.3,92.5,100.8,138.9,151c4.5,4.9,6.3,10.1,6.3,16.7
		c-0.3,239.8-0.5,479.7-0.8,719.5c0,3.5,1.4,8.4-2.5,9.9c-4,1.5-6.1-3.2-8.4-5.7c-64.8-70.9-129.4-141.9-194.2-212.8
		c-48.6-53.2-97.2-106.3-145.8-159.5c-74.6-81.7-149.1-163.4-223.7-245c-19.4-21.2-38.8-42.5-58.4-63.4c-5.1-5.4-7.3-11.1-7.3-18.5
		c-0.6-77.5-0.4-155-2.6-232.5c-1.6-58.6-0.6-117.1-2.1-175.7c-0.5-18.5-0.8-37.1-1.6-55.6c-0.3-7.7,1.7-13.8,7.1-19.7
		c65.7-72.6,131.1-145.3,196.6-218.1c11.2-12.4,22.5-24.8,33.4-37.5c5.3-6.1,8.7-5.4,13.6,0.6c35.8,45,71.7,89.9,108.1,134.4
		c6.2,7.6,5.5,12.5-0.6,19.4c-47.8,53.4-95.2,107.2-142.9,160.6c-4.9,5.5-7.3,11-7.3,18.5c0.4,52.8-0.8,105.6,0.8,158.3
		c1.9,60.8,1.1,121.5,1.6,182.3c0.1,9.4,2.8,16.6,8.8,23.6c71.1,81.8,142.1,163.8,213,245.8c2.1,2.4,3.6,5.4,5.3,8.1
		C495.3,1454.8,496.5,1453.9,497.6,1453z"/>
	<path class="st0" d="M710.3,101.1c-3.3,118.6-0.6,237.3-2.8,355.9c-1.9,105.2,0.1,210.3-2.2,315.5c-1.8,83.7-0.7,167.4-1.7,251.1
		c-0.1,4.9,2.1,11.9-3,14c-4.4,1.8-7.5-4.7-10.6-8c-59.8-62.6-119.5-125.4-179.3-188c-9.9-10.4-7.5-23.2-7.8-35
		c-0.9-42.9-0.5-85.9-1-128.8c-0.4-37.1-1.3-74.2-1.7-111.3c-0.1-6.7-2.8-11.8-6.7-16.8c-34.3-44.4-68.3-88.9-102.8-133
		c-5.1-6.5-5-10.3,0.6-16.5C494.2,286,596.8,171.8,699.4,57.6c2.3-2.6,4.3-7.2,8.3-5.7c4,1.5,2.4,6.4,2.4,9.8
		C710.4,74.9,710.3,88,710.3,101.1z"/>
	<path class="st0" d="M834.4,910.3c-2-143.7-1.4-287.5-3-431.2c-1.2-104.4-0.4-208.9-2-313.3c-0.6-34.5-0.8-69.1-1.5-103.6
		c-0.1-3.5-1.6-8.4,2.1-10c4.6-2.1,6.6,3.3,9.1,6c70.1,77.8,140.2,155.8,210.2,233.7c32.8,36.5,65.6,73.1,98.6,109.5
		c4.7,5.1,4.5,8.6,0.3,13.9c-34.4,44.2-68.5,88.7-102.8,133c-4.9,6.3-7.6,12.6-7.6,20.8c-0.6,79.3-1.6,158.6-2.3,237.9
		c-0.2,17.6-4.7,31.7-18.1,45.3c-56.4,57.3-111.2,116.2-166.8,174.3c-4,4.2-7.5,12.7-13.6,10.2c-5-2-2.5-10.6-2.5-16.2
		C834.3,983.9,834.4,947.1,834.4,910.3z"/>
</g>
</svg>
